<svg width="120" height="18" viewBox="0 0 120 18" fill="none" xmlns="http://www.w3.org/2000/svg">
<path d="M115.386 0.246091L110.648 11.5049L106.065 0.246091H101.112L108.064 16.7959H113.017L120 0.246091H115.386Z" fill="white"/>
<path d="M92.9481 17.042C98.2083 17.042 102.023 13.5044 102.023 8.521C102.023 3.5376 98.2083 0 92.9481 0C87.6878 0 83.8426 3.5376 83.8426 8.521C83.8426 13.5044 87.6878 17.042 92.9481 17.042ZM92.9481 13.1045C90.5486 13.1045 88.7029 11.3818 88.7029 8.521C88.7029 5.66016 90.5486 3.9375 92.9481 3.9375C95.3475 3.9375 97.1624 5.66016 97.1624 8.521C97.1624 11.3818 95.3475 13.1045 92.9481 13.1045Z" fill="white"/>
<path d="M55.019 13.1045L63.4477 3.13769V0.246091H49.1743V3.9375H57.3876L48.9589 13.9043V16.7959H63.7245V13.1045H55.019Z" fill="white"/>
<path d="M39.2316 17.042C44.4919 17.042 48.3063 13.5044 48.3063 8.521C48.3063 3.5376 44.4919 0 39.2316 0C33.9714 0 30.1261 3.5376 30.1261 8.521C30.1261 13.5044 33.9714 17.042 39.2316 17.042ZM39.2316 13.1045C36.8322 13.1045 34.9865 11.3818 34.9865 8.521C34.9865 5.66016 36.8322 3.9375 39.2316 3.9375C41.631 3.9375 43.446 5.66016 43.446 8.521C43.446 11.3818 41.631 13.1045 39.2316 13.1045Z" fill="white"/>
<path d="M23.3647 0.24608L18.7812 0.246058V16.7959H23.58C23.58 16.7959 23.58 8.98239 23.58 4.42965C23.9492 4.42965 28.5553 4.42965 29.0556 4.42965V0.246083C26.5024 0.246083 25.3378 0.246083 23.3647 0.24608Z" fill="white"/>
<path fill-rule="evenodd" clip-rule="evenodd" d="M65.9587 0.306256V16.7959H73.446C76.0774 16.7959 78.3297 15.9978 79.929 14.5522C81.5323 13.103 82.4483 11.0307 82.4483 8.55109C82.4483 6.07147 81.5323 3.99913 79.929 2.54999C78.3297 1.10439 76.0774 0.306256 73.446 0.306256H65.9587ZM70.3724 13.0113V4.09084H73.2677C74.7363 4.09084 75.9114 4.53078 76.7159 5.28694C77.5175 6.0404 77.99 7.14393 77.99 8.55109C77.99 9.95824 77.5175 11.0618 76.7159 11.8152C75.9114 12.5714 74.7363 13.0113 73.2677 13.0113H70.3724Z" fill="white"/>
<path d="M0 13.0113V16.7959H7.4873C10.1187 16.7959 12.371 15.9978 13.9704 14.5522C15.5737 13.103 16.4897 11.0307 16.4897 8.55109C16.4897 6.07147 15.5737 3.99913 13.9704 2.54999C12.371 1.10439 10.1187 0.306256 7.4873 0.306256H0V5.93687H4.41377V4.09084H7.30906C8.77767 4.09084 9.9527 4.53078 10.7572 5.28694C11.5588 6.0404 12.0313 7.14393 12.0313 8.55109C12.0313 9.95824 11.5588 11.0618 10.7572 11.8152C9.9527 12.5714 8.77767 13.0113 7.30906 13.0113H0Z" fill="white"/>
</svg>
